PathFileType	4	(X/Y/Z)	Patient4_TMGait_0pt6_01_left_34.trc.trc
DataRate	CameraRate	NumFrames	NumMarkers	Units	OrigDataRate	OrigDataStartFrame	OrigNumFrames
85.889570552147	85.889570552147	5	33	mm	85.889570552147	1	       141
Frame#	Time	Sacral			L.Shoulder			Chest			R.Shoulder			Neck			R.ASIS			L.ASIS			R.Thigh.Superior			R.Thigh.Lateral			R.Thigh.Inferior			R.Patella			L.Thigh.Superior			L.Thigh.Lateral			L.Thigh.Inferior			L.Patella			L.Shank.Superior			L.Shank.Lateral			L.Shank.Inferior			R.Shank.Superior			R.Shank.Lateral			R.Shank.Inferior			R.Heel			R.Midfoot.Superior			R.Midfoot.Lateral			R.Toe			L.Heel			L.Midfoot.Lateral			L.Midfoot.Superior			L.Toe			L.Elbow			L.Wrist			R.Elbow			R.Wrist			
		X1	Y1	Z1	X2	Y2	Z2	X3	Y3	Z3	X4	Y4	Z4	X5	Y5	Z5	X6	Y6	Z6	X7	Y7	Z7	X8	Y8	Z8	X9	Y9	Z9	X10	Y10	Z10	X11	Y11	Z11	X12	Y12	Z12	X13	Y13	Z13	X14	Y14	Z14	X15	Y15	Z15	X16	Y16	Z16	X17	Y17	Z17	X18	Y18	Z18	X19	Y19	Z19	X20	Y20	Z20	X21	Y21	Z21	X22	Y22	Z22	X23	Y23	Z23	X24	Y24	Z24	X25	Y25	Z25	X26	Y26	Z26	X27	Y27	Z27	X28	Y28	Z28	X29	Y29	Z29	X30	Y30	Z30	X31	Y31	Z31	X32	Y32	Z32	X33	Y33	Z33	

1	41.390000000000	762.015264166640	1006.953395727682	511.787465194066	912.625815745588	1433.803273313179	318.186833723214	1029.382306797264	1373.418484706753	472.813703538119	955.300786475463	1445.002465921546	651.108438091356	901.967409062169	1496.162675773538	472.576347642013	993.467032504826	947.215049989041	619.499683609721	968.304334876233	964.321167604236	347.244696261132	1028.919263963074	741.029366384514	584.700507581071	945.947799811253	632.594234645830	642.854008454371	1017.116678570972	580.536639483440	558.231905201372	1013.954637848284	492.113855102312	559.658961256160	1059.004671936021	786.399962839777	377.268449237010	1022.991412745481	662.380701982855	294.041904689077	1129.437286735863	603.518939537187	354.658175202704	1147.746577907641	514.367886404320	345.299932606557	1084.562704837816	443.191434629586	337.791816936341	945.232705724788	393.675442069718	288.680968523657	939.784548088574	262.993383828447	342.564606170986	985.762940130922	403.485957670713	564.249577297393	915.680513695760	298.885891602365	624.552155167469	952.459190888823	206.009297507712	556.424764004499	814.642952725408	42.705844874194	525.236025945050	986.583383840080	97.082665325288	558.983179089568	898.805542414762	36.771594499207	598.770570264676	1107.126334611793	42.803769019646	584.491974553033	751.939360296336	195.403829958299	378.401707575709	809.958210866611	144.488414811155	301.374004922392	915.257157374931	153.392610757669	322.680077788879	992.637271971509	38.567846014327	302.271960215690	885.497598363767	1071.383474046647	221.569533287549	936.328925398503	817.205512576532	217.824233013435	1007.926438731302	1105.771025309501	783.999849902579	1246.906149788967	1016.245495273606	745.890706796121	
2	41.401642857143	761.211502683483	1007.840081864933	512.748570361570	912.030119235496	1434.269349237284	318.826281739405	1029.497181397250	1373.465637160461	472.662961936808	956.694948598222	1445.362661559140	651.344117590673	902.419330513086	1496.563745513119	473.050652540249	992.575540089312	947.141655775142	619.479719552290	966.923600385861	965.097175504639	347.338977485301	1025.555886359758	740.272724354933	584.334759262376	941.515370176886	632.764331577136	643.110653554727	1011.536188734181	579.934406230732	558.316837844705	1007.401922040994	491.858596482417	559.966293000985	1058.207819215358	788.410444846270	377.919836645142	1023.067765334020	664.035140036360	294.339089507698	1129.406944098292	605.837350885483	354.969905980758	1148.865645496712	518.233112699201	345.663512496327	1089.823347795376	445.649069955209	337.420687191353	955.143271894653	387.681738770351	287.527650808615	958.685798772387	257.215767787285	340.505862233471	979.064061841282	403.409398241653	564.614868916151	908.673360305118	298.905491591924	624.722992149336	945.344858267385	205.924155865839	556.561651028912	807.253138235056	42.777805275270	525.261655659923	979.216231009793	97.024726596317	559.024392983543	891.403516315594	36.778133669169	598.776518495864	1099.705370704251	42.699800725196	584.582738865248	777.485405969563	176.321449223481	375.655047950694	838.335742656325	131.424609548798	297.987426380707	941.923839571125	147.624482203017	319.573912314501	1026.854615324415	40.082143343569	297.550770295795	876.863558465083	1073.364724985393	221.399986275052	921.085442579041	818.154132385330	218.318617937803	1016.178018218710	1107.871546598647	783.545789985721	1257.831440079125	1035.766107102186	742.087526193287	
3	41.413285714286	760.414309966380	1008.703986942713	513.677693020251	911.480045537286	1434.714779363197	319.441565671599	1029.629347594105	1373.478536659119	472.505738860864	958.089983851436	1445.680656533693	651.570340956880	902.886480900328	1496.938044275797	473.511574315728	991.686338552473	947.044900826495	619.444276638226	965.560307564490	965.827273417568	347.411958546369	1022.233300233702	739.516168175890	583.991395830891	937.128409754448	632.920483951330	643.359789745627	1006.031349767196	579.332186805332	558.405174680451	1000.946356604627	491.602572933271	560.264035101951	1057.342196268189	790.237760534431	378.501751758152	1022.885091066462	665.503259141125	294.627429176187	1129.075016142013	607.866784279086	355.280699271057	1149.654187988036	521.873532254682	346.083961542410	1094.779501566143	448.016028875745	337.123626299505	965.040518463247	381.655537550773	286.282887226356	977.489763767298	251.589909379143	338.519188331900	972.459375361925	403.321501765636	564.958414555089	901.764365302793	298.921460405268	624.888982483050	938.320570459731	205.836277665122	556.692149022627	799.952334610538	42.847553711901	525.282929794477	971.934798640429	96.960284071327	559.053879628008	884.091320176660	36.786042733900	598.781537820116	1092.373705266526	42.596047793736	584.672498046138	803.177594776675	157.527017325025	372.772306776246	866.872547597887	118.668124283824	294.621358776294	968.565525730196	142.120283841009	316.630797617464	1060.928612475595	41.983467951257	293.278839698000	868.347439566392	1075.344973767969	221.249594401105	906.085328723077	819.147831393378	218.782399636731	1024.330814948058	1109.934326421824	783.056821671093	1268.396769879925	1055.026804380585	738.291474425070	
4	41.424928571429	759.626769934253	1009.520381799817	514.544372134358	911.016809029732	1435.116893631590	320.006868980036	1029.797117334733	1373.416687442030	472.329658306738	959.494415860247	1445.911910970794	651.769108834708	903.386828080769	1497.256094658483	473.940745780851	990.803852884110	946.894621056357	619.366854907847	964.213674254336	966.464795877821	347.432931399375	1018.976832962090	738.751747687110	583.674874259878	932.812586849734	633.046738319751	643.583870547194	1000.644585625354	578.723237455430	558.486908411996	994.642009063051	491.337276082288	560.531506810622	1056.300409857675	791.695619092198	378.945705949827	1022.201165901823	666.622425708038	294.866549401829	1128.151409334176	609.358270931481	355.587724428044	1149.803311543603	525.107834492749	346.591308958451	1099.150577334552	450.232573448516	336.936261263442	974.894456851055	375.593918722917	284.905884606130	996.129332845157	246.317720807148	336.677754813413	965.993614527049	403.208341759186	565.253527516288	894.996450542277	298.930772906721	625.040375784136	931.412726642379	205.740862618764	556.806261682643	792.755747803015	42.914498000609	525.297606515081	964.752289340293	96.884456753076	559.062708879774	876.884739507626	36.795944659276	598.784586071518	1085.147937405658	42.491571813912	584.760215249244	829.215956118649	139.366000689601	369.737611385462	895.734086234914	106.569226290816	291.358089022661	995.176531340489	137.195585042630	313.999878319530	1094.721815410284	44.712301359551	289.801030316968	860.058168965702	1077.321831632060	221.130743084939	891.508549733657	820.231366313468	219.178623734849	1032.337707701117	1111.939547980346	782.485137573197	1278.262587446462	1073.874634480044	734.476772161190	
5	41.436571428571	758.851434596357	1010.267947559990	515.324788911911	910.672183048097	1435.455742969916	320.501998617334	1030.015730949540	1373.245133563664	472.123580190134	960.916363068113	1446.020547337429	651.922971809595	903.935212305038	1497.492062015058	474.323473464963	989.933356861138	946.666943677548	619.224105538569	962.878154259579	966.971191555748	347.375038694863	1015.804512257969	737.971443007484	583.384311093509	928.586979474513	633.128524610424	643.765465595881	995.406236685227	578.100542889492	558.551321390785	988.524217579590	491.052478381485	560.749738059930	1054.980257207683	792.626832756438	379.196505888792	1020.826446852235	667.271969385228	295.002723758284	1126.406768101655	610.126200953629	355.885074244920	1149.077787532635	527.808164598445	347.197521345512	1102.722947897952	452.266249462108	336.871406679070	984.675332052777	369.531404840056	283.383734615710	1014.541935248063	241.605184904324	335.047931761708	959.691372180705	403.058182339567	565.479133943408	888.390585756995	298.931045201754	625.167090224274	924.627198658694	205.632860291712	556.894674758309	785.655888006483	42.978469643494	525.305130071452	957.660070930885	96.794791974883	559.045731814550	869.776836078293	36.808011789220	598.785016137838	1078.022269801039	42.385239056908	584.844971307444	855.750956605925	122.187521572321	366.590022251790	925.029209691052	95.464508173299	288.302770954429	1021.730828801240	133.150762027433	311.811880292606	1128.086893817946	48.659410050934	287.389490829564	852.089876498167	1079.288321043301	221.052173361519	877.483888953182	821.436702294067	219.474027424670	1040.171936420846	1113.875901168924	781.790373594711	1287.162740974541	1092.206936998581	730.617247862055	
